<?xml version="1.0" encoding="utf-8" standalone="no"?>
<!DOCTYPE svg PUBLIC "-//W3C//DTD SVG 1.1//EN"
  "http://www.w3.org/Graphics/SVG/1.1/DTD/svg11.dtd">
<!-- Created with matplotlib (https://matplotlib.org/) -->
<svg height="392.514375pt" version="1.1" viewBox="0 0 639.555 392.514375" width="639.555pt" xmlns="http://www.w3.org/2000/svg" xmlns:xlink="http://www.w3.org/1999/xlink">
 <defs>
  <style type="text/css">
*{stroke-linecap:butt;stroke-linejoin:round;}
  </style>
 </defs>
 <g id="figure_1">
  <g id="patch_1">
   <path d="M -0 392.514375 
L 639.555 392.514375 
L 639.555 0 
L -0 0 
z
" style="fill:#ffffff;"/>
  </g>
  <g id="axes_1">
   <g id="patch_2">
    <path d="M 175.1625 354.958125 
L 509.9625 354.958125 
L 509.9625 22.318125 
L 175.1625 22.318125 
z
" style="fill:#ffffff;"/>
   </g>
   <g id="matplotlib.axis_1">
    <g id="xtick_1">
     <g id="line2d_1">
      <defs>
       <path d="M 0 0 
L 0 3.5 
" id="m3065f5ea7b" style="stroke:#000000;stroke-width:0.8;"/>
      </defs>
      <g>
       <use style="stroke:#000000;stroke-width:0.8;" x="190.380682" xlink:href="#m3065f5ea7b" y="354.958125"/>
      </g>
     </g>
     <g id="text_1">
      <!-- $\mathdefault{10^{-1}}$ -->
      <defs>
       <path d="M 12.40625 8.296875 
L 28.515625 8.296875 
L 28.515625 63.921875 
L 10.984375 60.40625 
L 10.984375 69.390625 
L 28.421875 72.90625 
L 38.28125 72.90625 
L 38.28125 8.296875 
L 54.390625 8.296875 
L 54.390625 0 
L 12.40625 0 
z
" id="DejaVuSans-49"/>
       <path d="M 31.78125 66.40625 
Q 24.171875 66.40625 20.328125 58.90625 
Q 16.5 51.421875 16.5 36.375 
Q 16.5 21.390625 20.328125 13.890625 
Q 24.171875 6.390625 31.78125 6.390625 
Q 39.453125 6.390625 43.28125 13.890625 
Q 47.125 21.390625 47.125 36.375 
Q 47.125 51.421875 43.28125 58.90625 
Q 39.453125 66.40625 31.78125 66.40625 
z
M 31.78125 74.21875 
Q 44.046875 74.21875 50.515625 64.515625 
Q 56.984375 54.828125 56.984375 36.375 
Q 56.984375 17.96875 50.515625 8.265625 
Q 44.046875 -1.421875 31.78125 -1.421875 
Q 19.53125 -1.421875 13.0625 8.265625 
Q 6.59375 17.96875 6.59375 36.375 
Q 6.59375 54.828125 13.0625 64.515625 
Q 19.53125 74.21875 31.78125 74.21875 
z
" id="DejaVuSans-48"/>
       <path d="M 10.59375 35.5 
L 73.1875 35.5 
L 73.1875 27.203125 
L 10.59375 27.203125 
z
" id="DejaVuSans-8722"/>
      </defs>
      <g transform="translate(178.630682 369.556562)scale(0.1 -0.1)">
       <use transform="translate(0 0.684375)" xlink:href="#DejaVuSans-49"/>
       <use transform="translate(63.623047 0.684375)" xlink:href="#DejaVuSans-48"/>
       <use transform="translate(128.203125 38.965625)scale(0.7)" xlink:href="#DejaVuSans-8722"/>
       <use transform="translate(186.855469 38.965625)scale(0.7)" xlink:href="#DejaVuSans-49"/>
      </g>
     </g>
    </g>
    <g id="xtick_2">
     <g id="line2d_2">
      <g>
       <use style="stroke:#000000;stroke-width:0.8;" x="494.744318" xlink:href="#m3065f5ea7b" y="354.958125"/>
      </g>
     </g>
     <g id="text_2">
      <!-- $\mathdefault{10^{0}}$ -->
      <g transform="translate(485.944318 369.556562)scale(0.1 -0.1)">
       <use transform="translate(0 0.765625)" xlink:href="#DejaVuSans-49"/>
       <use transform="translate(63.623047 0.765625)" xlink:href="#DejaVuSans-48"/>
       <use transform="translate(128.203125 39.046875)scale(0.7)" xlink:href="#DejaVuSans-48"/>
      </g>
     </g>
    </g>
    <g id="xtick_3">
     <g id="line2d_3">
      <defs>
       <path d="M 0 0 
L 0 2 
" id="m813dcb637b" style="stroke:#000000;stroke-width:0.6;"/>
      </defs>
      <g>
       <use style="stroke:#000000;stroke-width:0.6;" x="176.453766" xlink:href="#m813dcb637b" y="354.958125"/>
      </g>
     </g>
    </g>
    <g id="xtick_4">
     <g id="line2d_4">
      <g>
       <use style="stroke:#000000;stroke-width:0.6;" x="282.003266" xlink:href="#m813dcb637b" y="354.958125"/>
      </g>
     </g>
    </g>
    <g id="xtick_5">
     <g id="line2d_5">
      <g>
       <use style="stroke:#000000;stroke-width:0.6;" x="335.599042" xlink:href="#m813dcb637b" y="354.958125"/>
      </g>
     </g>
    </g>
    <g id="xtick_6">
     <g id="line2d_6">
      <g>
       <use style="stroke:#000000;stroke-width:0.6;" x="373.62585" xlink:href="#m813dcb637b" y="354.958125"/>
      </g>
     </g>
    </g>
    <g id="xtick_7">
     <g id="line2d_7">
      <g>
       <use style="stroke:#000000;stroke-width:0.6;" x="403.121734" xlink:href="#m813dcb637b" y="354.958125"/>
      </g>
     </g>
    </g>
    <g id="xtick_8">
     <g id="line2d_8">
      <g>
       <use style="stroke:#000000;stroke-width:0.6;" x="427.221626" xlink:href="#m813dcb637b" y="354.958125"/>
      </g>
     </g>
    </g>
    <g id="xtick_9">
     <g id="line2d_9">
      <g>
       <use style="stroke:#000000;stroke-width:0.6;" x="447.597794" xlink:href="#m813dcb637b" y="354.958125"/>
      </g>
     </g>
    </g>
    <g id="xtick_10">
     <g id="line2d_10">
      <g>
       <use style="stroke:#000000;stroke-width:0.6;" x="465.248434" xlink:href="#m813dcb637b" y="354.958125"/>
      </g>
     </g>
    </g>
    <g id="xtick_11">
     <g id="line2d_11">
      <g>
       <use style="stroke:#000000;stroke-width:0.6;" x="480.817402" xlink:href="#m813dcb637b" y="354.958125"/>
      </g>
     </g>
    </g>
    <g id="text_3">
     <!-- Risk Ratio (log scale) -->
     <defs>
      <path d="M 44.390625 34.1875 
Q 47.5625 33.109375 50.5625 29.59375 
Q 53.5625 26.078125 56.59375 19.921875 
L 66.609375 0 
L 56 0 
L 46.6875 18.703125 
Q 43.0625 26.03125 39.671875 28.421875 
Q 36.28125 30.8125 30.421875 30.8125 
L 19.671875 30.8125 
L 19.671875 0 
L 9.8125 0 
L 9.8125 72.90625 
L 32.078125 72.90625 
Q 44.578125 72.90625 50.734375 67.671875 
Q 56.890625 62.453125 56.890625 51.90625 
Q 56.890625 45.015625 53.6875 40.46875 
Q 50.484375 35.9375 44.390625 34.1875 
z
M 19.671875 64.796875 
L 19.671875 38.921875 
L 32.078125 38.921875 
Q 39.203125 38.921875 42.84375 42.21875 
Q 46.484375 45.515625 46.484375 51.90625 
Q 46.484375 58.296875 42.84375 61.546875 
Q 39.203125 64.796875 32.078125 64.796875 
z
" id="DejaVuSans-82"/>
      <path d="M 9.421875 54.6875 
L 18.40625 54.6875 
L 18.40625 0 
L 9.421875 0 
z
M 9.421875 75.984375 
L 18.40625 75.984375 
L 18.40625 64.59375 
L 9.421875 64.59375 
z
" id="DejaVuSans-105"/>
      <path d="M 44.28125 53.078125 
L 44.28125 44.578125 
Q 40.484375 46.53125 36.375 47.5 
Q 32.28125 48.484375 27.875 48.484375 
Q 21.1875 48.484375 17.84375 46.4375 
Q 14.5 44.390625 14.5 40.28125 
Q 14.5 37.15625 16.890625 35.375 
Q 19.28125 33.59375 26.515625 31.984375 
L 29.59375 31.296875 
Q 39.15625 29.25 43.1875 25.515625 
Q 47.21875 21.78125 47.21875 15.09375 
Q 47.21875 7.46875 41.1875 3.015625 
Q 35.15625 -1.421875 24.609375 -1.421875 
Q 20.21875 -1.421875 15.453125 -0.5625 
Q 10.6875 0.296875 5.421875 2 
L 5.421875 11.28125 
Q 10.40625 8.6875 15.234375 7.390625 
Q 20.0625 6.109375 24.8125 6.109375 
Q 31.15625 6.109375 34.5625 8.28125 
Q 37.984375 10.453125 37.984375 14.40625 
Q 37.984375 18.0625 35.515625 20.015625 
Q 33.0625 21.96875 24.703125 23.78125 
L 21.578125 24.515625 
Q 13.234375 26.265625 9.515625 29.90625 
Q 5.8125 33.546875 5.8125 39.890625 
Q 5.8125 47.609375 11.28125 51.796875 
Q 16.75 56 26.8125 56 
Q 31.78125 56 36.171875 55.265625 
Q 40.578125 54.546875 44.28125 53.078125 
z
" id="DejaVuSans-115"/>
      <path d="M 9.078125 75.984375 
L 18.109375 75.984375 
L 18.109375 31.109375 
L 44.921875 54.6875 
L 56.390625 54.6875 
L 27.390625 29.109375 
L 57.625 0 
L 45.90625 0 
L 18.109375 26.703125 
L 18.109375 0 
L 9.078125 0 
z
" id="DejaVuSans-107"/>
      <path id="DejaVuSans-32"/>
      <path d="M 34.28125 27.484375 
Q 23.390625 27.484375 19.1875 25 
Q 14.984375 22.515625 14.984375 16.5 
Q 14.984375 11.71875 18.140625 8.90625 
Q 21.296875 6.109375 26.703125 6.109375 
Q 34.1875 6.109375 38.703125 11.40625 
Q 43.21875 16.703125 43.21875 25.484375 
L 43.21875 27.484375 
z
M 52.203125 31.203125 
L 52.203125 0 
L 43.21875 0 
L 43.21875 8.296875 
Q 40.140625 3.328125 35.546875 0.953125 
Q 30.953125 -1.421875 24.3125 -1.421875 
Q 15.921875 -1.421875 10.953125 3.296875 
Q 6 8.015625 6 15.921875 
Q 6 25.140625 12.171875 29.828125 
Q 18.359375 34.515625 30.609375 34.515625 
L 43.21875 34.515625 
L 43.21875 35.40625 
Q 43.21875 41.609375 39.140625 45 
Q 35.0625 48.390625 27.6875 48.390625 
Q 23 48.390625 18.546875 47.265625 
Q 14.109375 46.140625 10.015625 43.890625 
L 10.015625 52.203125 
Q 14.9375 54.109375 19.578125 55.046875 
Q 24.21875 56 28.609375 56 
Q 40.484375 56 46.34375 49.84375 
Q 52.203125 43.703125 52.203125 31.203125 
z
" id="DejaVuSans-97"/>
      <path d="M 18.3125 70.21875 
L 18.3125 54.6875 
L 36.8125 54.6875 
L 36.8125 47.703125 
L 18.3125 47.703125 
L 18.3125 18.015625 
Q 18.3125 11.328125 20.140625 9.421875 
Q 21.96875 7.515625 27.59375 7.515625 
L 36.8125 7.515625 
L 36.8125 0 
L 27.59375 0 
Q 17.1875 0 13.234375 3.875 
Q 9.28125 7.765625 9.28125 18.015625 
L 9.28125 47.703125 
L 2.6875 47.703125 
L 2.6875 54.6875 
L 9.28125 54.6875 
L 9.28125 70.21875 
z
" id="DejaVuSans-116"/>
      <path d="M 30.609375 48.390625 
Q 23.390625 48.390625 19.1875 42.75 
Q 14.984375 37.109375 14.984375 27.296875 
Q 14.984375 17.484375 19.15625 11.84375 
Q 23.34375 6.203125 30.609375 6.203125 
Q 37.796875 6.203125 41.984375 11.859375 
Q 46.1875 17.53125 46.1875 27.296875 
Q 46.1875 37.015625 41.984375 42.703125 
Q 37.796875 48.390625 30.609375 48.390625 
z
M 30.609375 56 
Q 42.328125 56 49.015625 48.375 
Q 55.71875 40.765625 55.71875 27.296875 
Q 55.71875 13.875 49.015625 6.21875 
Q 42.328125 -1.421875 30.609375 -1.421875 
Q 18.84375 -1.421875 12.171875 6.21875 
Q 5.515625 13.875 5.515625 27.296875 
Q 5.515625 40.765625 12.171875 48.375 
Q 18.84375 56 30.609375 56 
z
" id="DejaVuSans-111"/>
      <path d="M 31 75.875 
Q 24.46875 64.65625 21.28125 53.65625 
Q 18.109375 42.671875 18.109375 31.390625 
Q 18.109375 20.125 21.3125 9.0625 
Q 24.515625 -2 31 -13.1875 
L 23.1875 -13.1875 
Q 15.875 -1.703125 12.234375 9.375 
Q 8.59375 20.453125 8.59375 31.390625 
Q 8.59375 42.28125 12.203125 53.3125 
Q 15.828125 64.359375 23.1875 75.875 
z
" id="DejaVuSans-40"/>
      <path d="M 9.421875 75.984375 
L 18.40625 75.984375 
L 18.40625 0 
L 9.421875 0 
z
" id="DejaVuSans-108"/>
      <path d="M 45.40625 27.984375 
Q 45.40625 37.75 41.375 43.109375 
Q 37.359375 48.484375 30.078125 48.484375 
Q 22.859375 48.484375 18.828125 43.109375 
Q 14.796875 37.75 14.796875 27.984375 
Q 14.796875 18.265625 18.828125 12.890625 
Q 22.859375 7.515625 30.078125 7.515625 
Q 37.359375 7.515625 41.375 12.890625 
Q 45.40625 18.265625 45.40625 27.984375 
z
M 54.390625 6.78125 
Q 54.390625 -7.171875 48.1875 -13.984375 
Q 42 -20.796875 29.203125 -20.796875 
Q 24.46875 -20.796875 20.265625 -20.09375 
Q 16.0625 -19.390625 12.109375 -17.921875 
L 12.109375 -9.1875 
Q 16.0625 -11.328125 19.921875 -12.34375 
Q 23.78125 -13.375 27.78125 -13.375 
Q 36.625 -13.375 41.015625 -8.765625 
Q 45.40625 -4.15625 45.40625 5.171875 
L 45.40625 9.625 
Q 42.625 4.78125 38.28125 2.390625 
Q 33.9375 0 27.875 0 
Q 17.828125 0 11.671875 7.65625 
Q 5.515625 15.328125 5.515625 27.984375 
Q 5.515625 40.671875 11.671875 48.328125 
Q 17.828125 56 27.875 56 
Q 33.9375 56 38.28125 53.609375 
Q 42.625 51.21875 45.40625 46.390625 
L 45.40625 54.6875 
L 54.390625 54.6875 
z
" id="DejaVuSans-103"/>
      <path d="M 48.78125 52.59375 
L 48.78125 44.1875 
Q 44.96875 46.296875 41.140625 47.34375 
Q 37.3125 48.390625 33.40625 48.390625 
Q 24.65625 48.390625 19.8125 42.84375 
Q 14.984375 37.3125 14.984375 27.296875 
Q 14.984375 17.28125 19.8125 11.734375 
Q 24.65625 6.203125 33.40625 6.203125 
Q 37.3125 6.203125 41.140625 7.25 
Q 44.96875 8.296875 48.78125 10.40625 
L 48.78125 2.09375 
Q 45.015625 0.34375 40.984375 -0.53125 
Q 36.96875 -1.421875 32.421875 -1.421875 
Q 20.0625 -1.421875 12.78125 6.34375 
Q 5.515625 14.109375 5.515625 27.296875 
Q 5.515625 40.671875 12.859375 48.328125 
Q 20.21875 56 33.015625 56 
Q 37.15625 56 41.109375 55.140625 
Q 45.0625 54.296875 48.78125 52.59375 
z
" id="DejaVuSans-99"/>
      <path d="M 56.203125 29.59375 
L 56.203125 25.203125 
L 14.890625 25.203125 
Q 15.484375 15.921875 20.484375 11.0625 
Q 25.484375 6.203125 34.421875 6.203125 
Q 39.59375 6.203125 44.453125 7.46875 
Q 49.3125 8.734375 54.109375 11.28125 
L 54.109375 2.78125 
Q 49.265625 0.734375 44.1875 -0.34375 
Q 39.109375 -1.421875 33.890625 -1.421875 
Q 20.796875 -1.421875 13.15625 6.1875 
Q 5.515625 13.8125 5.515625 26.8125 
Q 5.515625 40.234375 12.765625 48.109375 
Q 20.015625 56 32.328125 56 
Q 43.359375 56 49.78125 48.890625 
Q 56.203125 41.796875 56.203125 29.59375 
z
M 47.21875 32.234375 
Q 47.125 39.59375 43.09375 43.984375 
Q 39.0625 48.390625 32.421875 48.390625 
Q 24.90625 48.390625 20.390625 44.140625 
Q 15.875 39.890625 15.1875 32.171875 
z
" id="DejaVuSans-101"/>
      <path d="M 8.015625 75.875 
L 15.828125 75.875 
Q 23.140625 64.359375 26.78125 53.3125 
Q 30.421875 42.28125 30.421875 31.390625 
Q 30.421875 20.453125 26.78125 9.375 
Q 23.140625 -1.703125 15.828125 -13.1875 
L 8.015625 -13.1875 
Q 14.5 -2 17.703125 9.0625 
Q 20.90625 20.125 20.90625 31.390625 
Q 20.90625 42.671875 17.703125 53.65625 
Q 14.5 64.65625 8.015625 75.875 
z
" id="DejaVuSans-41"/>
     </defs>
     <g transform="translate(290.078906 383.234687)scale(0.1 -0.1)">
      <use xlink:href="#DejaVuSans-82"/>
      <use x="69.482422" xlink:href="#DejaVuSans-105"/>
      <use x="97.265625" xlink:href="#DejaVuSans-115"/>
      <use x="149.365234" xlink:href="#DejaVuSans-107"/>
      <use x="207.275391" xlink:href="#DejaVuSans-32"/>
      <use x="239.0625" xlink:href="#DejaVuSans-82"/>
      <use x="308.513672" xlink:href="#DejaVuSans-97"/>
      <use x="369.792969" xlink:href="#DejaVuSans-116"/>
      <use x="409.001953" xlink:href="#DejaVuSans-105"/>
      <use x="436.785156" xlink:href="#DejaVuSans-111"/>
      <use x="497.966797" xlink:href="#DejaVuSans-32"/>
      <use x="529.753906" xlink:href="#DejaVuSans-40"/>
      <use x="568.767578" xlink:href="#DejaVuSans-108"/>
      <use x="596.550781" xlink:href="#DejaVuSans-111"/>
      <use x="657.732422" xlink:href="#DejaVuSans-103"/>
      <use x="721.208984" xlink:href="#DejaVuSans-32"/>
      <use x="752.996094" xlink:href="#DejaVuSans-115"/>
      <use x="805.095703" xlink:href="#DejaVuSans-99"/>
      <use x="860.076172" xlink:href="#DejaVuSans-97"/>
      <use x="921.355469" xlink:href="#DejaVuSans-108"/>
      <use x="949.138672" xlink:href="#DejaVuSans-101"/>
      <use x="1010.662109" xlink:href="#DejaVuSans-41"/>
     </g>
    </g>
   </g>
   <g id="matplotlib.axis_2">
    <g id="ytick_1">
     <g id="line2d_12">
      <defs>
       <path d="M 0 0 
L -3.5 0 
" id="md3c6615706" style="stroke:#000000;stroke-width:0.8;"/>
      </defs>
      <g>
       <use style="stroke:#000000;stroke-width:0.8;" x="175.1625" xlink:href="#md3c6615706" y="271.798125"/>
      </g>
     </g>
     <g id="text_4">
      <!-- Whole population -->
      <defs>
       <path d="M 3.328125 72.90625 
L 13.28125 72.90625 
L 28.609375 11.28125 
L 43.890625 72.90625 
L 54.984375 72.90625 
L 70.3125 11.28125 
L 85.59375 72.90625 
L 95.609375 72.90625 
L 77.296875 0 
L 64.890625 0 
L 49.515625 63.28125 
L 33.984375 0 
L 21.578125 0 
z
" id="DejaVuSans-87"/>
       <path d="M 54.890625 33.015625 
L 54.890625 0 
L 45.90625 0 
L 45.90625 32.71875 
Q 45.90625 40.484375 42.875 44.328125 
Q 39.84375 48.1875 33.796875 48.1875 
Q 26.515625 48.1875 22.3125 43.546875 
Q 18.109375 38.921875 18.109375 30.90625 
L 18.109375 0 
L 9.078125 0 
L 9.078125 75.984375 
L 18.109375 75.984375 
L 18.109375 46.1875 
Q 21.34375 51.125 25.703125 53.5625 
Q 30.078125 56 35.796875 56 
Q 45.21875 56 50.046875 50.171875 
Q 54.890625 44.34375 54.890625 33.015625 
z
" id="DejaVuSans-104"/>
       <path d="M 18.109375 8.203125 
L 18.109375 -20.796875 
L 9.078125 -20.796875 
L 9.078125 54.6875 
L 18.109375 54.6875 
L 18.109375 46.390625 
Q 20.953125 51.265625 25.265625 53.625 
Q 29.59375 56 35.59375 56 
Q 45.5625 56 51.78125 48.09375 
Q 58.015625 40.1875 58.015625 27.296875 
Q 58.015625 14.40625 51.78125 6.484375 
Q 45.5625 -1.421875 35.59375 -1.421875 
Q 29.59375 -1.421875 25.265625 0.953125 
Q 20.953125 3.328125 18.109375 8.203125 
z
M 48.6875 27.296875 
Q 48.6875 37.203125 44.609375 42.84375 
Q 40.53125 48.484375 33.40625 48.484375 
Q 26.265625 48.484375 22.1875 42.84375 
Q 18.109375 37.203125 18.109375 27.296875 
Q 18.109375 17.390625 22.1875 11.75 
Q 26.265625 6.109375 33.40625 6.109375 
Q 40.53125 6.109375 44.609375 11.75 
Q 48.6875 17.390625 48.6875 27.296875 
z
" id="DejaVuSans-112"/>
       <path d="M 8.5 21.578125 
L 8.5 54.6875 
L 17.484375 54.6875 
L 17.484375 21.921875 
Q 17.484375 14.15625 20.5 10.265625 
Q 23.53125 6.390625 29.59375 6.390625 
Q 36.859375 6.390625 41.078125 11.03125 
Q 45.3125 15.671875 45.3125 23.6875 
L 45.3125 54.6875 
L 54.296875 54.6875 
L 54.296875 0 
L 45.3125 0 
L 45.3125 8.40625 
Q 42.046875 3.421875 37.71875 1 
Q 33.40625 -1.421875 27.6875 -1.421875 
Q 18.265625 -1.421875 13.375 4.4375 
Q 8.5 10.296875 8.5 21.578125 
z
M 31.109375 56 
z
" id="DejaVuSans-117"/>
       <path d="M 54.890625 33.015625 
L 54.890625 0 
L 45.90625 0 
L 45.90625 32.71875 
Q 45.90625 40.484375 42.875 44.328125 
Q 39.84375 48.1875 33.796875 48.1875 
Q 26.515625 48.1875 22.3125 43.546875 
Q 18.109375 38.921875 18.109375 30.90625 
L 18.109375 0 
L 9.078125 0 
L 9.078125 54.6875 
L 18.109375 54.6875 
L 18.109375 46.1875 
Q 21.34375 51.125 25.703125 53.5625 
Q 30.078125 56 35.796875 56 
Q 45.21875 56 50.046875 50.171875 
Q 54.890625 44.34375 54.890625 33.015625 
z
" id="DejaVuSans-110"/>
      </defs>
      <g transform="translate(80.495313 275.597344)scale(0.1 -0.1)">
       <use xlink:href="#DejaVuSans-87"/>
       <use x="98.876953" xlink:href="#DejaVuSans-104"/>
       <use x="162.255859" xlink:href="#DejaVuSans-111"/>
       <use x="223.4375" xlink:href="#DejaVuSans-108"/>
       <use x="251.220703" xlink:href="#DejaVuSans-101"/>
       <use x="312.744141" xlink:href="#DejaVuSans-32"/>
       <use x="344.53125" xlink:href="#DejaVuSans-112"/>
       <use x="408.007812" xlink:href="#DejaVuSans-111"/>
       <use x="469.189453" xlink:href="#DejaVuSans-112"/>
       <use x="532.666016" xlink:href="#DejaVuSans-117"/>
       <use x="596.044922" xlink:href="#DejaVuSans-108"/>
       <use x="623.828125" xlink:href="#DejaVuSans-97"/>
       <use x="685.107422" xlink:href="#DejaVuSans-116"/>
       <use x="724.316406" xlink:href="#DejaVuSans-105"/>
       <use x="752.099609" xlink:href="#DejaVuSans-111"/>
       <use x="813.28125" xlink:href="#DejaVuSans-110"/>
      </g>
     </g>
    </g>
    <g id="ytick_2">
     <g id="line2d_13">
      <g>
       <use style="stroke:#000000;stroke-width:0.8;" x="175.1625" xlink:href="#md3c6615706" y="105.478125"/>
      </g>
     </g>
     <g id="text_5">
      <!-- People with underlying diseases -->
      <defs>
       <path d="M 19.671875 64.796875 
L 19.671875 37.40625 
L 32.078125 37.40625 
Q 38.96875 37.40625 42.71875 40.96875 
Q 46.484375 44.53125 46.484375 51.125 
Q 46.484375 57.671875 42.71875 61.234375 
Q 38.96875 64.796875 32.078125 64.796875 
z
M 9.8125 72.90625 
L 32.078125 72.90625 
Q 44.34375 72.90625 50.609375 67.359375 
Q 56.890625 61.8125 56.890625 51.125 
Q 56.890625 40.328125 50.609375 34.8125 
Q 44.34375 29.296875 32.078125 29.296875 
L 19.671875 29.296875 
L 19.671875 0 
L 9.8125 0 
z
" id="DejaVuSans-80"/>
       <path d="M 4.203125 54.6875 
L 13.1875 54.6875 
L 24.421875 12.015625 
L 35.59375 54.6875 
L 46.1875 54.6875 
L 57.421875 12.015625 
L 68.609375 54.6875 
L 77.59375 54.6875 
L 63.28125 0 
L 52.6875 0 
L 40.921875 44.828125 
L 29.109375 0 
L 18.5 0 
z
" id="DejaVuSans-119"/>
       <path d="M 45.40625 46.390625 
L 45.40625 75.984375 
L 54.390625 75.984375 
L 54.390625 0 
L 45.40625 0 
L 45.40625 8.203125 
Q 42.578125 3.328125 38.25 0.953125 
Q 33.9375 -1.421875 27.875 -1.421875 
Q 17.96875 -1.421875 11.734375 6.484375 
Q 5.515625 14.40625 5.515625 27.296875 
Q 5.515625 40.1875 11.734375 48.09375 
Q 17.96875 56 27.875 56 
Q 33.9375 56 38.25 53.625 
Q 42.578125 51.265625 45.40625 46.390625 
z
M 14.796875 27.296875 
Q 14.796875 17.390625 18.875 11.75 
Q 22.953125 6.109375 30.078125 6.109375 
Q 37.203125 6.109375 41.296875 11.75 
Q 45.40625 17.390625 45.40625 27.296875 
Q 45.40625 37.203125 41.296875 42.84375 
Q 37.203125 48.484375 30.078125 48.484375 
Q 22.953125 48.484375 18.875 42.84375 
Q 14.796875 37.203125 14.796875 27.296875 
z
" id="DejaVuSans-100"/>
       <path d="M 41.109375 46.296875 
Q 39.59375 47.171875 37.8125 47.578125 
Q 36.03125 48 33.890625 48 
Q 26.265625 48 22.1875 43.046875 
Q 18.109375 38.09375 18.109375 28.8125 
L 18.109375 0 
L 9.078125 0 
L 9.078125 54.6875 
L 18.109375 54.6875 
L 18.109375 46.1875 
Q 20.953125 51.171875 25.484375 53.578125 
Q 30.03125 56 36.53125 56 
Q 37.453125 56 38.578125 55.875 
Q 39.703125 55.765625 41.0625 55.515625 
z
" id="DejaVuSans-114"/>
       <path d="M 32.171875 -5.078125 
Q 28.375 -14.84375 24.75 -17.8125 
Q 21.140625 -20.796875 15.09375 -20.796875 
L 7.90625 -20.796875 
L 7.90625 -13.28125 
L 13.1875 -13.28125 
Q 16.890625 -13.28125 18.9375 -11.515625 
Q 21 -9.765625 23.484375 -3.21875 
L 25.09375 0.875 
L 2.984375 54.6875 
L 12.5 54.6875 
L 29.59375 11.921875 
L 46.6875 54.6875 
L 56.203125 54.6875 
z
" id="DejaVuSans-121"/>
      </defs>
      <g transform="translate(7.2 109.277344)scale(0.1 -0.1)">
       <use xlink:href="#DejaVuSans-80"/>
       <use x="60.255859" xlink:href="#DejaVuSans-101"/>
       <use x="121.779297" xlink:href="#DejaVuSans-111"/>
       <use x="182.960938" xlink:href="#DejaVuSans-112"/>
       <use x="246.4375" xlink:href="#DejaVuSans-108"/>
       <use x="274.220703" xlink:href="#DejaVuSans-101"/>
       <use x="335.744141" xlink:href="#DejaVuSans-32"/>
       <use x="367.53125" xlink:href="#DejaVuSans-119"/>
       <use x="449.318359" xlink:href="#DejaVuSans-105"/>
       <use x="477.101562" xlink:href="#DejaVuSans-116"/>
       <use x="516.310547" xlink:href="#DejaVuSans-104"/>
       <use x="579.689453" xlink:href="#DejaVuSans-32"/>
       <use x="611.476562" xlink:href="#DejaVuSans-117"/>
       <use x="674.855469" xlink:href="#DejaVuSans-110"/>
       <use x="738.234375" xlink:href="#DejaVuSans-100"/>
       <use x="801.710938" xlink:href="#DejaVuSans-101"/>
       <use x="863.234375" xlink:href="#DejaVuSans-114"/>
       <use x="904.347656" xlink:href="#DejaVuSans-108"/>
       <use x="932.130859" xlink:href="#DejaVuSans-121"/>
       <use x="991.310547" xlink:href="#DejaVuSans-105"/>
       <use x="1019.09375" xlink:href="#DejaVuSans-110"/>
       <use x="1082.472656" xlink:href="#DejaVuSans-103"/>
       <use x="1145.949219" xlink:href="#DejaVuSans-32"/>
       <use x="1177.736328" xlink:href="#DejaVuSans-100"/>
       <use x="1241.212891" xlink:href="#DejaVuSans-105"/>
       <use x="1268.996094" xlink:href="#DejaVuSans-115"/>
       <use x="1321.095703" xlink:href="#DejaVuSans-101"/>
       <use x="1382.619141" xlink:href="#DejaVuSans-97"/>
       <use x="1443.898438" xlink:href="#DejaVuSans-115"/>
       <use x="1495.998047" xlink:href="#DejaVuSans-101"/>
       <use x="1557.521484" xlink:href="#DejaVuSans-115"/>
      </g>
     </g>
    </g>
   </g>
   <g id="LineCollection_1">
    <path clip-path="url(#p06d5cd5ab3)" style="fill:none;stroke:#0000ff;stroke-width:1.5;"/>
    <path clip-path="url(#p06d5cd5ab3)" style="fill:none;stroke:#0000ff;stroke-width:1.5;"/>
   </g>
   <g id="line2d_14">
    <path clip-path="url(#p06d5cd5ab3)" d="M 494.744318 354.958125 
L 494.744318 22.318125 
" style="fill:none;stroke:#000000;stroke-dasharray:3.7,1.6;stroke-dashoffset:0;"/>
   </g>
   <g id="line2d_15">
    <defs>
     <path d="M 0 5 
C 1.326016 5 2.597899 4.473168 3.535534 3.535534 
C 4.473168 2.597899 5 1.326016 5 0 
C 5 -1.326016 4.473168 -2.597899 3.535534 -3.535534 
C 2.597899 -4.473168 1.326016 -5 0 -5 
C -1.326016 -5 -2.597899 -4.473168 -3.535534 -3.535534 
C -4.473168 -2.597899 -5 -1.326016 -5 0 
C -5 1.326016 -4.473168 2.597899 -3.535534 3.535534 
C -2.597899 4.473168 -1.326016 5 0 5 
z
" id="meba916215b" style="stroke:#0000ff;"/>
    </defs>
    <g clip-path="url(#p06d5cd5ab3)"/>
   </g>
   <g id="patch_3">
    <path d="M 175.1625 354.958125 
L 175.1625 22.318125 
" style="fill:none;stroke:#000000;stroke-linecap:square;stroke-linejoin:miter;stroke-width:0.8;"/>
   </g>
   <g id="patch_4">
    <path d="M 509.9625 354.958125 
L 509.9625 22.318125 
" style="fill:none;stroke:#000000;stroke-linecap:square;stroke-linejoin:miter;stroke-width:0.8;"/>
   </g>
   <g id="patch_5">
    <path d="M 175.1625 354.958125 
L 509.9625 354.958125 
" style="fill:none;stroke:#000000;stroke-linecap:square;stroke-linejoin:miter;stroke-width:0.8;"/>
   </g>
   <g id="patch_6">
    <path d="M 175.1625 22.318125 
L 509.9625 22.318125 
" style="fill:none;stroke:#000000;stroke-linecap:square;stroke-linejoin:miter;stroke-width:0.8;"/>
   </g>
   <g id="text_6">
    <!-- Risk ratio of vaccination on death in subjects with underlying diseases or the general population -->
    <defs>
     <path d="M 37.109375 75.984375 
L 37.109375 68.5 
L 28.515625 68.5 
Q 23.6875 68.5 21.796875 66.546875 
Q 19.921875 64.59375 19.921875 59.515625 
L 19.921875 54.6875 
L 34.71875 54.6875 
L 34.71875 47.703125 
L 19.921875 47.703125 
L 19.921875 0 
L 10.890625 0 
L 10.890625 47.703125 
L 2.296875 47.703125 
L 2.296875 54.6875 
L 10.890625 54.6875 
L 10.890625 58.5 
Q 10.890625 67.625 15.140625 71.796875 
Q 19.390625 75.984375 28.609375 75.984375 
z
" id="DejaVuSans-102"/>
     <path d="M 2.984375 54.6875 
L 12.5 54.6875 
L 29.59375 8.796875 
L 46.6875 54.6875 
L 56.203125 54.6875 
L 35.6875 0 
L 23.484375 0 
z
" id="DejaVuSans-118"/>
     <path d="M 48.6875 27.296875 
Q 48.6875 37.203125 44.609375 42.84375 
Q 40.53125 48.484375 33.40625 48.484375 
Q 26.265625 48.484375 22.1875 42.84375 
Q 18.109375 37.203125 18.109375 27.296875 
Q 18.109375 17.390625 22.1875 11.75 
Q 26.265625 6.109375 33.40625 6.109375 
Q 40.53125 6.109375 44.609375 11.75 
Q 48.6875 17.390625 48.6875 27.296875 
z
M 18.109375 46.390625 
Q 20.953125 51.265625 25.265625 53.625 
Q 29.59375 56 35.59375 56 
Q 45.5625 56 51.78125 48.09375 
Q 58.015625 40.1875 58.015625 27.296875 
Q 58.015625 14.40625 51.78125 6.484375 
Q 45.5625 -1.421875 35.59375 -1.421875 
Q 29.59375 -1.421875 25.265625 0.953125 
Q 20.953125 3.328125 18.109375 8.203125 
L 18.109375 0 
L 9.078125 0 
L 9.078125 75.984375 
L 18.109375 75.984375 
z
" id="DejaVuSans-98"/>
     <path d="M 9.421875 54.6875 
L 18.40625 54.6875 
L 18.40625 -0.984375 
Q 18.40625 -11.421875 14.421875 -16.109375 
Q 10.453125 -20.796875 1.609375 -20.796875 
L -1.8125 -20.796875 
L -1.8125 -13.1875 
L 0.59375 -13.1875 
Q 5.71875 -13.1875 7.5625 -10.8125 
Q 9.421875 -8.453125 9.421875 -0.984375 
z
M 9.421875 75.984375 
L 18.40625 75.984375 
L 18.40625 64.59375 
L 9.421875 64.59375 
z
" id="DejaVuSans-106"/>
    </defs>
    <g transform="translate(52.77 16.318125)scale(0.12 -0.12)">
     <use xlink:href="#DejaVuSans-82"/>
     <use x="69.482422" xlink:href="#DejaVuSans-105"/>
     <use x="97.265625" xlink:href="#DejaVuSans-115"/>
     <use x="149.365234" xlink:href="#DejaVuSans-107"/>
     <use x="207.275391" xlink:href="#DejaVuSans-32"/>
     <use x="239.0625" xlink:href="#DejaVuSans-114"/>
     <use x="280.175781" xlink:href="#DejaVuSans-97"/>
     <use x="341.455078" xlink:href="#DejaVuSans-116"/>
     <use x="380.664062" xlink:href="#DejaVuSans-105"/>
     <use x="408.447266" xlink:href="#DejaVuSans-111"/>
     <use x="469.628906" xlink:href="#DejaVuSans-32"/>
     <use x="501.416016" xlink:href="#DejaVuSans-111"/>
     <use x="562.597656" xlink:href="#DejaVuSans-102"/>
     <use x="597.802734" xlink:href="#DejaVuSans-32"/>
     <use x="629.589844" xlink:href="#DejaVuSans-118"/>
     <use x="688.769531" xlink:href="#DejaVuSans-97"/>
     <use x="750.048828" xlink:href="#DejaVuSans-99"/>
     <use x="805.029297" xlink:href="#DejaVuSans-99"/>
     <use x="860.009766" xlink:href="#DejaVuSans-105"/>
     <use x="887.792969" xlink:href="#DejaVuSans-110"/>
     <use x="951.171875" xlink:href="#DejaVuSans-97"/>
     <use x="1012.451172" xlink:href="#DejaVuSans-116"/>
     <use x="1051.660156" xlink:href="#DejaVuSans-105"/>
     <use x="1079.443359" xlink:href="#DejaVuSans-111"/>
     <use x="1140.625" xlink:href="#DejaVuSans-110"/>
     <use x="1204.003906" xlink:href="#DejaVuSans-32"/>
     <use x="1235.791016" xlink:href="#DejaVuSans-111"/>
     <use x="1296.972656" xlink:href="#DejaVuSans-110"/>
     <use x="1360.351562" xlink:href="#DejaVuSans-32"/>
     <use x="1392.138672" xlink:href="#DejaVuSans-100"/>
     <use x="1455.615234" xlink:href="#DejaVuSans-101"/>
     <use x="1517.138672" xlink:href="#DejaVuSans-97"/>
     <use x="1578.417969" xlink:href="#DejaVuSans-116"/>
     <use x="1617.626953" xlink:href="#DejaVuSans-104"/>
     <use x="1681.005859" xlink:href="#DejaVuSans-32"/>
     <use x="1712.792969" xlink:href="#DejaVuSans-105"/>
     <use x="1740.576172" xlink:href="#DejaVuSans-110"/>
     <use x="1803.955078" xlink:href="#DejaVuSans-32"/>
     <use x="1835.742188" xlink:href="#DejaVuSans-115"/>
     <use x="1887.841797" xlink:href="#DejaVuSans-117"/>
     <use x="1951.220703" xlink:href="#DejaVuSans-98"/>
     <use x="2014.697266" xlink:href="#DejaVuSans-106"/>
     <use x="2042.480469" xlink:href="#DejaVuSans-101"/>
     <use x="2104.003906" xlink:href="#DejaVuSans-99"/>
     <use x="2158.984375" xlink:href="#DejaVuSans-116"/>
     <use x="2198.193359" xlink:href="#DejaVuSans-115"/>
     <use x="2250.292969" xlink:href="#DejaVuSans-32"/>
     <use x="2282.080078" xlink:href="#DejaVuSans-119"/>
     <use x="2363.867188" xlink:href="#DejaVuSans-105"/>
     <use x="2391.650391" xlink:href="#DejaVuSans-116"/>
     <use x="2430.859375" xlink:href="#DejaVuSans-104"/>
     <use x="2494.238281" xlink:href="#DejaVuSans-32"/>
     <use x="2526.025391" xlink:href="#DejaVuSans-117"/>
     <use x="2589.404297" xlink:href="#DejaVuSans-110"/>
     <use x="2652.783203" xlink:href="#DejaVuSans-100"/>
     <use x="2716.259766" xlink:href="#DejaVuSans-101"/>
     <use x="2777.783203" xlink:href="#DejaVuSans-114"/>
     <use x="2818.896484" xlink:href="#DejaVuSans-108"/>
     <use x="2846.679688" xlink:href="#DejaVuSans-121"/>
     <use x="2905.859375" xlink:href="#DejaVuSans-105"/>
     <use x="2933.642578" xlink:href="#DejaVuSans-110"/>
     <use x="2997.021484" xlink:href="#DejaVuSans-103"/>
     <use x="3060.498047" xlink:href="#DejaVuSans-32"/>
     <use x="3092.285156" xlink:href="#DejaVuSans-100"/>
     <use x="3155.761719" xlink:href="#DejaVuSans-105"/>
     <use x="3183.544922" xlink:href="#DejaVuSans-115"/>
     <use x="3235.644531" xlink:href="#DejaVuSans-101"/>
     <use x="3297.167969" xlink:href="#DejaVuSans-97"/>
     <use x="3358.447266" xlink:href="#DejaVuSans-115"/>
     <use x="3410.546875" xlink:href="#DejaVuSans-101"/>
     <use x="3472.070312" xlink:href="#DejaVuSans-115"/>
     <use x="3524.169922" xlink:href="#DejaVuSans-32"/>
     <use x="3555.957031" xlink:href="#DejaVuSans-111"/>
     <use x="3617.138672" xlink:href="#DejaVuSans-114"/>
     <use x="3658.251953" xlink:href="#DejaVuSans-32"/>
     <use x="3690.039062" xlink:href="#DejaVuSans-116"/>
     <use x="3729.248047" xlink:href="#DejaVuSans-104"/>
     <use x="3792.626953" xlink:href="#DejaVuSans-101"/>
     <use x="3854.150391" xlink:href="#DejaVuSans-32"/>
     <use x="3885.9375" xlink:href="#DejaVuSans-103"/>
     <use x="3949.414062" xlink:href="#DejaVuSans-101"/>
     <use x="4010.9375" xlink:href="#DejaVuSans-110"/>
     <use x="4074.316406" xlink:href="#DejaVuSans-101"/>
     <use x="4135.839844" xlink:href="#DejaVuSans-114"/>
     <use x="4176.953125" xlink:href="#DejaVuSans-97"/>
     <use x="4238.232422" xlink:href="#DejaVuSans-108"/>
     <use x="4266.015625" xlink:href="#DejaVuSans-32"/>
     <use x="4297.802734" xlink:href="#DejaVuSans-112"/>
     <use x="4361.279297" xlink:href="#DejaVuSans-111"/>
     <use x="4422.460938" xlink:href="#DejaVuSans-112"/>
     <use x="4485.9375" xlink:href="#DejaVuSans-117"/>
     <use x="4549.316406" xlink:href="#DejaVuSans-108"/>
     <use x="4577.099609" xlink:href="#DejaVuSans-97"/>
     <use x="4638.378906" xlink:href="#DejaVuSans-116"/>
     <use x="4677.587891" xlink:href="#DejaVuSans-105"/>
     <use x="4705.371094" xlink:href="#DejaVuSans-111"/>
     <use x="4766.552734" xlink:href="#DejaVuSans-110"/>
    </g>
   </g>
  </g>
 </g>
 <defs>
  <clipPath id="p06d5cd5ab3">
   <rect height="332.64" width="334.8" x="175.1625" y="22.318125"/>
  </clipPath>
 </defs>
</svg>
